<?xml version="1.0" encoding="UTF-8" standalone="no"?>
<!DOCTYPE svg PUBLIC "-//W3C//DTD SVG 1.1//EN"
 "http://www.w3.org/Graphics/SVG/1.1/DTD/svg11.dtd">
<!-- Generated by graphviz version 2.36.0 (20140111.2315)
 -->
<!-- Title: %3 Pages: 1 -->
<svg width="264pt" height="188pt"
 viewBox="0.00 0.00 264.00 188.00" xmlns="http://www.w3.org/2000/svg" xmlns:xlink="http://www.w3.org/1999/xlink">
<g id="graph0" class="graph" transform="scale(1 1) rotate(0) translate(4 184)">
<title>%3</title>
<polygon fill="white" stroke="none" points="-4,4 -4,-184 260,-184 260,4 -4,4"/>
<!-- Symbol(x)_(0,) -->
<g id="node1" class="node"><title>Symbol(x)_(0,)</title>
<ellipse fill="none" stroke="black" cx="51" cy="-90" rx="51.4931" ry="18"/>
<text text-anchor="middle" x="51" y="-86.3" font-family="Times,serif" font-size="14.00">Symbol(&#39;x&#39;)</text>
</g>
<!-- Symbol(y)_(1, 0) -->
<g id="node2" class="node"><title>Symbol(y)_(1, 0)</title>
<ellipse fill="none" stroke="black" cx="89" cy="-18" rx="51.4931" ry="18"/>
<text text-anchor="middle" x="89" y="-14.3" font-family="Times,serif" font-size="14.00">Symbol(&#39;y&#39;)</text>
</g>
<!-- NegativeOne()_(1, 1) -->
<g id="node3" class="node"><title>NegativeOne()_(1, 1)</title>
<ellipse fill="none" stroke="black" cx="208" cy="-18" rx="48.6179" ry="18"/>
<text text-anchor="middle" x="208" y="-14.3" font-family="Times,serif" font-size="14.00">Integer(&#45;1)</text>
</g>
<!-- Pow(Symbol(y), NegativeOne())_(1,) -->
<g id="node4" class="node"><title>Pow(Symbol(y), NegativeOne())_(1,)</title>
<ellipse fill="none" stroke="black" cx="148" cy="-90" rx="27" ry="18"/>
<text text-anchor="middle" x="148" y="-86.3" font-family="Times,serif" font-size="14.00">Pow</text>
</g>
<!-- Pow(Symbol(y), NegativeOne())_(1,)&#45;&gt;Symbol(y)_(1, 0) -->
<g id="edge1" class="edge"><title>Pow(Symbol(y), NegativeOne())_(1,)&#45;&gt;Symbol(y)_(1, 0)</title>
<path fill="none" stroke="black" d="M135.198,-73.811C127.71,-64.9271 118.082,-53.5041 109.555,-43.3875"/>
<polygon fill="black" stroke="black" points="112.136,-41.0185 103.015,-35.6278 106.783,-45.5298 112.136,-41.0185"/>
</g>
<!-- Pow(Symbol(y), NegativeOne())_(1,)&#45;&gt;NegativeOne()_(1, 1) -->
<g id="edge2" class="edge"><title>Pow(Symbol(y), NegativeOne())_(1,)&#45;&gt;NegativeOne()_(1, 1)</title>
<path fill="none" stroke="black" d="M161.019,-73.811C168.634,-64.9271 178.425,-53.5041 187.096,-43.3875"/>
<polygon fill="black" stroke="black" points="189.897,-45.4982 193.748,-35.6278 184.582,-40.9427 189.897,-45.4982"/>
</g>
<!-- Mul(Symbol(x), Pow(Symbol(y), NegativeOne()))_() -->
<g id="node5" class="node"><title>Mul(Symbol(x), Pow(Symbol(y), NegativeOne()))_()</title>
<ellipse fill="none" stroke="black" cx="99" cy="-162" rx="27" ry="18"/>
<text text-anchor="middle" x="99" y="-158.3" font-family="Times,serif" font-size="14.00">Mul</text>
</g>
<!-- Mul(Symbol(x), Pow(Symbol(y), NegativeOne()))_()&#45;&gt;Symbol(x)_(0,) -->
<g id="edge3" class="edge"><title>Mul(Symbol(x), Pow(Symbol(y), NegativeOne()))_()&#45;&gt;Symbol(x)_(0,)</title>
<path fill="none" stroke="black" d="M88.1081,-145.116C82.2631,-136.592 74.9219,-125.886 68.3152,-116.251"/>
<polygon fill="black" stroke="black" points="71.0601,-114.065 62.5182,-107.797 65.287,-118.024 71.0601,-114.065"/>
</g>
<!-- Mul(Symbol(x), Pow(Symbol(y), NegativeOne()))_()&#45;&gt;Pow(Symbol(y), NegativeOne())_(1,) -->
<g id="edge4" class="edge"><title>Mul(Symbol(x), Pow(Symbol(y), NegativeOne()))_()&#45;&gt;Pow(Symbol(y), NegativeOne())_(1,)</title>
<path fill="none" stroke="black" d="M109.875,-145.465C116.155,-136.493 124.187,-125.019 131.258,-114.918"/>
<polygon fill="black" stroke="black" points="134.288,-116.691 137.156,-106.492 128.554,-112.677 134.288,-116.691"/>
</g>
</g>
</svg>
