<?xml version="1.0" encoding="UTF-8" standalone="no"?>
<!DOCTYPE svg PUBLIC "-//W3C//DTD SVG 1.1//EN"
 "http://www.w3.org/Graphics/SVG/1.1/DTD/svg11.dtd">
<!-- Generated by graphviz version 2.36.0 (20140111.2315)
 -->
<!-- Title: %3 Pages: 1 -->
<svg width="714pt" height="332pt"
 viewBox="0.00 0.00 714.00 332.00" xmlns="http://www.w3.org/2000/svg" xmlns:xlink="http://www.w3.org/1999/xlink">
<g id="graph0" class="graph" transform="scale(1 1) rotate(0) translate(4 328)">
<title>%3</title>
<polygon fill="white" stroke="none" points="-4,4 -4,-328 710,-328 710,4 -4,4"/>
<!-- Half()_(0, 0) -->
<g id="node1" class="node"><title>Half()_(0, 0)</title>
<ellipse fill="none" stroke="black" cx="297" cy="-162" rx="59.1941" ry="18"/>
<text text-anchor="middle" x="297" y="-158.3" font-family="Times,serif" font-size="14.00">Rational(1, 2)</text>
</g>
<!-- Symbol(y)_(2, 0) -->
<g id="node2" class="node"><title>Symbol(y)_(2, 0)</title>
<ellipse fill="none" stroke="black" cx="51" cy="-162" rx="51.4931" ry="18"/>
<text text-anchor="middle" x="51" y="-158.3" font-family="Times,serif" font-size="14.00">Symbol(&#39;y&#39;)</text>
</g>
<!-- Symbol(x)_(1, 1, 0) -->
<g id="node3" class="node"><title>Symbol(x)_(1, 1, 0)</title>
<ellipse fill="none" stroke="black" cx="544" cy="-90" rx="51.4931" ry="18"/>
<text text-anchor="middle" x="544" y="-86.3" font-family="Times,serif" font-size="14.00">Symbol(&#39;x&#39;)</text>
</g>
<!-- Integer(2)_(1, 1, 1) -->
<g id="node4" class="node"><title>Integer(2)_(1, 1, 1)</title>
<ellipse fill="none" stroke="black" cx="660" cy="-90" rx="46.2191" ry="18"/>
<text text-anchor="middle" x="660" y="-86.3" font-family="Times,serif" font-size="14.00">Integer(2)</text>
</g>
<!-- NegativeOne()_(2, 1) -->
<g id="node5" class="node"><title>NegativeOne()_(2, 1)</title>
<ellipse fill="none" stroke="black" cx="170" cy="-162" rx="48.6179" ry="18"/>
<text text-anchor="middle" x="170" y="-158.3" font-family="Times,serif" font-size="14.00">Integer(&#45;1)</text>
</g>
<!-- NegativeOne()_(1, 0) -->
<g id="node6" class="node"><title>NegativeOne()_(1, 0)</title>
<ellipse fill="none" stroke="black" cx="496" cy="-162" rx="48.6179" ry="18"/>
<text text-anchor="middle" x="496" y="-158.3" font-family="Times,serif" font-size="14.00">Integer(&#45;1)</text>
</g>
<!-- Symbol(y)_(0, 1, 0, 1) -->
<g id="node7" class="node"><title>Symbol(y)_(0, 1, 0, 1)</title>
<ellipse fill="none" stroke="black" cx="341" cy="-18" rx="51.4931" ry="18"/>
<text text-anchor="middle" x="341" y="-14.3" font-family="Times,serif" font-size="14.00">Symbol(&#39;y&#39;)</text>
</g>
<!-- Symbol(x)_(0, 1, 0, 0) -->
<g id="node8" class="node"><title>Symbol(x)_(0, 1, 0, 0)</title>
<ellipse fill="none" stroke="black" cx="463" cy="-18" rx="51.4931" ry="18"/>
<text text-anchor="middle" x="463" y="-14.3" font-family="Times,serif" font-size="14.00">Symbol(&#39;x&#39;)</text>
</g>
<!-- Pow(Symbol(x), Integer(2))_(1, 1) -->
<g id="node9" class="node"><title>Pow(Symbol(x), Integer(2))_(1, 1)</title>
<ellipse fill="none" stroke="black" cx="590" cy="-162" rx="27" ry="18"/>
<text text-anchor="middle" x="590" y="-158.3" font-family="Times,serif" font-size="14.00">Pow</text>
</g>
<!-- Pow(Symbol(x), Integer(2))_(1, 1)&#45;&gt;Symbol(x)_(1, 1, 0) -->
<g id="edge2" class="edge"><title>Pow(Symbol(x), Integer(2))_(1, 1)&#45;&gt;Symbol(x)_(1, 1, 0)</title>
<path fill="none" stroke="black" d="M579.562,-145.116C573.96,-136.592 566.925,-125.886 560.594,-116.251"/>
<polygon fill="black" stroke="black" points="563.455,-114.232 555.038,-107.797 557.605,-118.077 563.455,-114.232"/>
</g>
<!-- Pow(Symbol(x), Integer(2))_(1, 1)&#45;&gt;Integer(2)_(1, 1, 1) -->
<g id="edge3" class="edge"><title>Pow(Symbol(x), Integer(2))_(1, 1)&#45;&gt;Integer(2)_(1, 1, 1)</title>
<path fill="none" stroke="black" d="M604.504,-146.496C613.875,-137.125 626.272,-124.728 636.972,-114.028"/>
<polygon fill="black" stroke="black" points="639.454,-116.496 644.05,-106.95 634.504,-111.546 639.454,-116.496"/>
</g>
<!-- Pow(Symbol(y), NegativeOne())_(2,) -->
<g id="node10" class="node"><title>Pow(Symbol(y), NegativeOne())_(2,)</title>
<ellipse fill="none" stroke="black" cx="170" cy="-234" rx="27" ry="18"/>
<text text-anchor="middle" x="170" y="-230.3" font-family="Times,serif" font-size="14.00">Pow</text>
</g>
<!-- Pow(Symbol(y), NegativeOne())_(2,)&#45;&gt;Symbol(y)_(2, 0) -->
<g id="edge1" class="edge"><title>Pow(Symbol(y), NegativeOne())_(2,)&#45;&gt;Symbol(y)_(2, 0)</title>
<path fill="none" stroke="black" d="M150.35,-221.441C132.559,-210.976 105.971,-195.336 84.7761,-182.868"/>
<polygon fill="black" stroke="black" points="86.4581,-179.797 76.0642,-177.744 82.909,-185.831 86.4581,-179.797"/>
</g>
<!-- Pow(Symbol(y), NegativeOne())_(2,)&#45;&gt;NegativeOne()_(2, 1) -->
<g id="edge4" class="edge"><title>Pow(Symbol(y), NegativeOne())_(2,)&#45;&gt;NegativeOne()_(2, 1)</title>
<path fill="none" stroke="black" d="M170,-215.697C170,-207.983 170,-198.712 170,-190.112"/>
<polygon fill="black" stroke="black" points="173.5,-190.104 170,-180.104 166.5,-190.104 173.5,-190.104"/>
</g>
<!-- Mul(Symbol(x), Symbol(y))_(0, 1, 0) -->
<g id="node11" class="node"><title>Mul(Symbol(x), Symbol(y))_(0, 1, 0)</title>
<ellipse fill="none" stroke="black" cx="402" cy="-90" rx="27" ry="18"/>
<text text-anchor="middle" x="402" y="-86.3" font-family="Times,serif" font-size="14.00">Mul</text>
</g>
<!-- Mul(Symbol(x), Symbol(y))_(0, 1, 0)&#45;&gt;Symbol(y)_(0, 1, 0, 1) -->
<g id="edge6" class="edge"><title>Mul(Symbol(x), Symbol(y))_(0, 1, 0)&#45;&gt;Symbol(y)_(0, 1, 0, 1)</title>
<path fill="none" stroke="black" d="M389.063,-74.1548C381.337,-65.288 371.329,-53.8033 362.447,-43.6111"/>
<polygon fill="black" stroke="black" points="364.839,-41.0287 355.63,-35.789 359.562,-45.6276 364.839,-41.0287"/>
</g>
<!-- Mul(Symbol(x), Symbol(y))_(0, 1, 0)&#45;&gt;Symbol(x)_(0, 1, 0, 0) -->
<g id="edge5" class="edge"><title>Mul(Symbol(x), Symbol(y))_(0, 1, 0)&#45;&gt;Symbol(x)_(0, 1, 0, 0)</title>
<path fill="none" stroke="black" d="M414.937,-74.1548C422.663,-65.288 432.671,-53.8033 441.553,-43.6111"/>
<polygon fill="black" stroke="black" points="444.438,-45.6276 448.37,-35.789 439.161,-41.0287 444.438,-45.6276"/>
</g>
<!-- sin(Mul(Symbol(x), Symbol(y)))_(0, 1) -->
<g id="node12" class="node"><title>sin(Mul(Symbol(x), Symbol(y)))_(0, 1)</title>
<ellipse fill="none" stroke="black" cx="402" cy="-162" rx="27" ry="18"/>
<text text-anchor="middle" x="402" y="-158.3" font-family="Times,serif" font-size="14.00">sin</text>
</g>
<!-- sin(Mul(Symbol(x), Symbol(y)))_(0, 1)&#45;&gt;Mul(Symbol(x), Symbol(y))_(0, 1, 0) -->
<g id="edge9" class="edge"><title>sin(Mul(Symbol(x), Symbol(y)))_(0, 1)&#45;&gt;Mul(Symbol(x), Symbol(y))_(0, 1, 0)</title>
<path fill="none" stroke="black" d="M402,-143.697C402,-135.983 402,-126.712 402,-118.112"/>
<polygon fill="black" stroke="black" points="405.5,-118.104 402,-108.104 398.5,-118.104 405.5,-118.104"/>
</g>
<!-- Mul(Half(), sin(Mul(Symbol(x), Symbol(y))))_(0,) -->
<g id="node13" class="node"><title>Mul(Half(), sin(Mul(Symbol(x), Symbol(y))))_(0,)</title>
<ellipse fill="none" stroke="black" cx="349" cy="-234" rx="27" ry="18"/>
<text text-anchor="middle" x="349" y="-230.3" font-family="Times,serif" font-size="14.00">Mul</text>
</g>
<!-- Mul(Half(), sin(Mul(Symbol(x), Symbol(y))))_(0,)&#45;&gt;Half()_(0, 0) -->
<g id="edge7" class="edge"><title>Mul(Half(), sin(Mul(Symbol(x), Symbol(y))))_(0,)&#45;&gt;Half()_(0, 0)</title>
<path fill="none" stroke="black" d="M337.46,-217.465C331.072,-208.867 322.978,-197.97 315.71,-188.187"/>
<polygon fill="black" stroke="black" points="318.373,-185.902 309.6,-179.962 312.754,-190.076 318.373,-185.902"/>
</g>
<!-- Mul(Half(), sin(Mul(Symbol(x), Symbol(y))))_(0,)&#45;&gt;sin(Mul(Symbol(x), Symbol(y)))_(0, 1) -->
<g id="edge11" class="edge"><title>Mul(Half(), sin(Mul(Symbol(x), Symbol(y))))_(0,)&#45;&gt;sin(Mul(Symbol(x), Symbol(y)))_(0, 1)</title>
<path fill="none" stroke="black" d="M360.762,-217.465C367.624,-208.402 376.419,-196.786 384.122,-186.612"/>
<polygon fill="black" stroke="black" points="387.024,-188.577 390.27,-178.492 381.444,-184.352 387.024,-188.577"/>
</g>
<!-- Mul(NegativeOne(), Pow(Symbol(x), Integer(2)))_(1,) -->
<g id="node14" class="node"><title>Mul(NegativeOne(), Pow(Symbol(x), Integer(2)))_(1,)</title>
<ellipse fill="none" stroke="black" cx="496" cy="-234" rx="27" ry="18"/>
<text text-anchor="middle" x="496" y="-230.3" font-family="Times,serif" font-size="14.00">Mul</text>
</g>
<!-- Mul(NegativeOne(), Pow(Symbol(x), Integer(2)))_(1,)&#45;&gt;NegativeOne()_(1, 0) -->
<g id="edge8" class="edge"><title>Mul(NegativeOne(), Pow(Symbol(x), Integer(2)))_(1,)&#45;&gt;NegativeOne()_(1, 0)</title>
<path fill="none" stroke="black" d="M496,-215.697C496,-207.983 496,-198.712 496,-190.112"/>
<polygon fill="black" stroke="black" points="499.5,-190.104 496,-180.104 492.5,-190.104 499.5,-190.104"/>
</g>
<!-- Mul(NegativeOne(), Pow(Symbol(x), Integer(2)))_(1,)&#45;&gt;Pow(Symbol(x), Integer(2))_(1, 1) -->
<g id="edge10" class="edge"><title>Mul(NegativeOne(), Pow(Symbol(x), Integer(2)))_(1,)&#45;&gt;Pow(Symbol(x), Integer(2))_(1, 1)</title>
<path fill="none" stroke="black" d="M513.681,-219.834C527.95,-209.207 548.223,-194.11 564.289,-182.147"/>
<polygon fill="black" stroke="black" points="566.786,-184.651 572.716,-175.871 562.605,-179.036 566.786,-184.651"/>
</g>
<!-- Add(Mul(Half(), sin(Mul(Symbol(x), Symbol(y)))), Mul(NegativeOne(), Pow(Symbol(x), Integer(2))), Pow(Symbol(y), NegativeOne()))_() -->
<g id="node15" class="node"><title>Add(Mul(Half(), sin(Mul(Symbol(x), Symbol(y)))), Mul(NegativeOne(), Pow(Symbol(x), Integer(2))), Pow(Symbol(y), NegativeOne()))_()</title>
<ellipse fill="none" stroke="black" cx="349" cy="-306" rx="27" ry="18"/>
<text text-anchor="middle" x="349" y="-302.3" font-family="Times,serif" font-size="14.00">Add</text>
</g>
<!-- Add(Mul(Half(), sin(Mul(Symbol(x), Symbol(y)))), Mul(NegativeOne(), Pow(Symbol(x), Integer(2))), Pow(Symbol(y), NegativeOne()))_()&#45;&gt;Pow(Symbol(y), NegativeOne())_(2,) -->
<g id="edge12" class="edge"><title>Add(Mul(Half(), sin(Mul(Symbol(x), Symbol(y)))), Mul(NegativeOne(), Pow(Symbol(x), Integer(2))), Pow(Symbol(y), NegativeOne()))_()&#45;&gt;Pow(Symbol(y), NegativeOne())_(2,)</title>
<path fill="none" stroke="black" d="M326.33,-296.134C294.943,-283.86 238.081,-261.624 202.272,-247.62"/>
<polygon fill="black" stroke="black" points="203.356,-244.286 192.768,-243.904 200.807,-250.806 203.356,-244.286"/>
</g>
<!-- Add(Mul(Half(), sin(Mul(Symbol(x), Symbol(y)))), Mul(NegativeOne(), Pow(Symbol(x), Integer(2))), Pow(Symbol(y), NegativeOne()))_()&#45;&gt;Mul(Half(), sin(Mul(Symbol(x), Symbol(y))))_(0,) -->
<g id="edge13" class="edge"><title>Add(Mul(Half(), sin(Mul(Symbol(x), Symbol(y)))), Mul(NegativeOne(), Pow(Symbol(x), Integer(2))), Pow(Symbol(y), NegativeOne()))_()&#45;&gt;Mul(Half(), sin(Mul(Symbol(x), Symbol(y))))_(0,)</title>
<path fill="none" stroke="black" d="M349,-287.697C349,-279.983 349,-270.712 349,-262.112"/>
<polygon fill="black" stroke="black" points="352.5,-262.104 349,-252.104 345.5,-262.104 352.5,-262.104"/>
</g>
<!-- Add(Mul(Half(), sin(Mul(Symbol(x), Symbol(y)))), Mul(NegativeOne(), Pow(Symbol(x), Integer(2))), Pow(Symbol(y), NegativeOne()))_()&#45;&gt;Mul(NegativeOne(), Pow(Symbol(x), Integer(2)))_(1,) -->
<g id="edge14" class="edge"><title>Add(Mul(Half(), sin(Mul(Symbol(x), Symbol(y)))), Mul(NegativeOne(), Pow(Symbol(x), Integer(2))), Pow(Symbol(y), NegativeOne()))_()&#45;&gt;Mul(NegativeOne(), Pow(Symbol(x), Integer(2)))_(1,)</title>
<path fill="none" stroke="black" d="M370.375,-294.821C395.415,-282.898 437.083,-263.056 465.51,-249.519"/>
<polygon fill="black" stroke="black" points="467.075,-252.65 474.599,-245.191 464.066,-246.33 467.075,-252.65"/>
</g>
</g>
</svg>
