<?xml version="1.0" encoding="UTF-8" standalone="no"?>
<!DOCTYPE svg PUBLIC "-//W3C//DTD SVG 1.1//EN"
 "http://www.w3.org/Graphics/SVG/1.1/DTD/svg11.dtd">
<!-- Generated by graphviz version 2.36.0 (20140111.2315)
 -->
<!-- Title: %3 Pages: 1 -->
<svg width="464pt" height="188pt"
 viewBox="0.00 0.00 464.00 188.00" xmlns="http://www.w3.org/2000/svg" xmlns:xlink="http://www.w3.org/1999/xlink">
<g id="graph0" class="graph" transform="scale(1 1) rotate(0) translate(4 184)">
<title>%3</title>
<polygon fill="white" stroke="none" points="-4,4 -4,-184 460,-184 460,4 -4,4"/>
<!-- Symbol(x)_(0, 0) -->
<g id="node1" class="node"><title>Symbol(x)_(0, 0)</title>
<ellipse fill="none" stroke="black" cx="51" cy="-18" rx="51.4931" ry="18"/>
<text text-anchor="middle" x="51" y="-14.3" font-family="Times,serif" font-size="14.00">Symbol(&#39;x&#39;)</text>
</g>
<!-- Integer(2)_(1, 1) -->
<g id="node2" class="node"><title>Integer(2)_(1, 1)</title>
<ellipse fill="none" stroke="black" cx="289" cy="-18" rx="46.2191" ry="18"/>
<text text-anchor="middle" x="289" y="-14.3" font-family="Times,serif" font-size="14.00">Integer(2)</text>
</g>
<!-- Symbol(y)_(0, 1) -->
<g id="node3" class="node"><title>Symbol(y)_(0, 1)</title>
<ellipse fill="none" stroke="black" cx="173" cy="-18" rx="51.4931" ry="18"/>
<text text-anchor="middle" x="173" y="-14.3" font-family="Times,serif" font-size="14.00">Symbol(&#39;y&#39;)</text>
</g>
<!-- Symbol(x)_(1, 0) -->
<g id="node4" class="node"><title>Symbol(x)_(1, 0)</title>
<ellipse fill="none" stroke="black" cx="405" cy="-18" rx="51.4931" ry="18"/>
<text text-anchor="middle" x="405" y="-14.3" font-family="Times,serif" font-size="14.00">Symbol(&#39;x&#39;)</text>
</g>
<!-- Mul(Symbol(x), Symbol(y))_(0,) -->
<g id="node5" class="node"><title>Mul(Symbol(x), Symbol(y))_(0,)</title>
<ellipse fill="none" stroke="black" cx="173" cy="-90" rx="27" ry="18"/>
<text text-anchor="middle" x="173" y="-86.3" font-family="Times,serif" font-size="14.00">Mul</text>
</g>
<!-- Mul(Symbol(x), Symbol(y))_(0,)&#45;&gt;Symbol(x)_(0, 0) -->
<g id="edge1" class="edge"><title>Mul(Symbol(x), Symbol(y))_(0,)&#45;&gt;Symbol(x)_(0, 0)</title>
<path fill="none" stroke="black" d="M153.127,-77.5975C134.849,-67.1102 107.35,-51.3321 85.4903,-38.7895"/>
<polygon fill="black" stroke="black" points="87.2303,-35.7527 76.8148,-33.8118 83.7466,-41.8243 87.2303,-35.7527"/>
</g>
<!-- Mul(Symbol(x), Symbol(y))_(0,)&#45;&gt;Symbol(y)_(0, 1) -->
<g id="edge2" class="edge"><title>Mul(Symbol(x), Symbol(y))_(0,)&#45;&gt;Symbol(y)_(0, 1)</title>
<path fill="none" stroke="black" d="M173,-71.6966C173,-63.9827 173,-54.7125 173,-46.1124"/>
<polygon fill="black" stroke="black" points="176.5,-46.1043 173,-36.1043 169.5,-46.1044 176.5,-46.1043"/>
</g>
<!-- Pow(Symbol(x), Integer(2))_(1,) -->
<g id="node6" class="node"><title>Pow(Symbol(x), Integer(2))_(1,)</title>
<ellipse fill="none" stroke="black" cx="289" cy="-90" rx="27" ry="18"/>
<text text-anchor="middle" x="289" y="-86.3" font-family="Times,serif" font-size="14.00">Pow</text>
</g>
<!-- Pow(Symbol(x), Integer(2))_(1,)&#45;&gt;Integer(2)_(1, 1) -->
<g id="edge4" class="edge"><title>Pow(Symbol(x), Integer(2))_(1,)&#45;&gt;Integer(2)_(1, 1)</title>
<path fill="none" stroke="black" d="M289,-71.6966C289,-63.9827 289,-54.7125 289,-46.1124"/>
<polygon fill="black" stroke="black" points="292.5,-46.1043 289,-36.1043 285.5,-46.1044 292.5,-46.1043"/>
</g>
<!-- Pow(Symbol(x), Integer(2))_(1,)&#45;&gt;Symbol(x)_(1, 0) -->
<g id="edge3" class="edge"><title>Pow(Symbol(x), Integer(2))_(1,)&#45;&gt;Symbol(x)_(1, 0)</title>
<path fill="none" stroke="black" d="M308.416,-77.2836C325.608,-66.9091 351.077,-51.5397 371.545,-39.1881"/>
<polygon fill="black" stroke="black" points="373.507,-42.0922 380.261,-33.9289 369.89,-36.0989 373.507,-42.0922"/>
</g>
<!-- Add(Mul(Symbol(x), Symbol(y)), Pow(Symbol(x), Integer(2)))_() -->
<g id="node7" class="node"><title>Add(Mul(Symbol(x), Symbol(y)), Pow(Symbol(x), Integer(2)))_()</title>
<ellipse fill="none" stroke="black" cx="231" cy="-162" rx="27" ry="18"/>
<text text-anchor="middle" x="231" y="-158.3" font-family="Times,serif" font-size="14.00">Add</text>
</g>
<!-- Add(Mul(Symbol(x), Symbol(y)), Pow(Symbol(x), Integer(2)))_()&#45;&gt;Mul(Symbol(x), Symbol(y))_(0,) -->
<g id="edge5" class="edge"><title>Add(Mul(Symbol(x), Symbol(y)), Pow(Symbol(x), Integer(2)))_()&#45;&gt;Mul(Symbol(x), Symbol(y))_(0,)</title>
<path fill="none" stroke="black" d="M218.415,-145.811C210.738,-136.546 200.774,-124.52 192.135,-114.094"/>
<polygon fill="black" stroke="black" points="194.636,-111.626 185.561,-106.159 189.246,-116.093 194.636,-111.626"/>
</g>
<!-- Add(Mul(Symbol(x), Symbol(y)), Pow(Symbol(x), Integer(2)))_()&#45;&gt;Pow(Symbol(x), Integer(2))_(1,) -->
<g id="edge6" class="edge"><title>Add(Mul(Symbol(x), Symbol(y)), Pow(Symbol(x), Integer(2)))_()&#45;&gt;Pow(Symbol(x), Integer(2))_(1,)</title>
<path fill="none" stroke="black" d="M243.585,-145.811C251.262,-136.546 261.226,-124.52 269.865,-114.094"/>
<polygon fill="black" stroke="black" points="272.754,-116.093 276.439,-106.159 267.364,-111.626 272.754,-116.093"/>
</g>
</g>
</svg>
